<svg xmlns="http://www.w3.org/2000/svg" viewBox="0 0 16 16" width="32" height="32" shape-rendering="crispEdges">
<!-- vulcao — arte nossa (ST-10.22d), gerada por tools/pixel-arte.mjs; edite a grade lá. -->
<rect x="0" y="0" width="8" height="1" fill="#5a382e"/>
<rect x="8" y="0" width="1" height="1" fill="#4a2c24"/>
<rect x="9" y="0" width="7" height="1" fill="#5a382e"/>
<rect x="0" y="1" width="1" height="1" fill="#5a382e"/>
<rect x="1" y="1" width="1" height="1" fill="#4a2c24"/>
<rect x="2" y="1" width="14" height="1" fill="#5a382e"/>
<rect x="0" y="2" width="2" height="1" fill="#5a382e"/>
<rect x="2" y="2" width="1" height="1" fill="#4a2c24"/>
<rect x="3" y="2" width="12" height="1" fill="#5a382e"/>
<rect x="15" y="2" width="1" height="1" fill="#4a2c24"/>
<rect x="0" y="3" width="2" height="1" fill="#5a382e"/>
<rect x="2" y="3" width="1" height="1" fill="#ff6a1a"/>
<rect x="3" y="3" width="1" height="1" fill="#5a382e"/>
<rect x="4" y="3" width="1" height="1" fill="#4a2c24"/>
<rect x="5" y="3" width="4" height="1" fill="#5a382e"/>
<rect x="9" y="3" width="1" height="1" fill="#4a2c24"/>
<rect x="10" y="3" width="6" height="1" fill="#5a382e"/>
<rect x="0" y="4" width="3" height="1" fill="#5a382e"/>
<rect x="3" y="4" width="2" height="1" fill="#ff6a1a"/>
<rect x="5" y="4" width="4" height="1" fill="#5a382e"/>
<rect x="9" y="4" width="1" height="1" fill="#4a2c24"/>
<rect x="10" y="4" width="6" height="1" fill="#5a382e"/>
<rect x="0" y="5" width="4" height="1" fill="#5a382e"/>
<rect x="4" y="5" width="1" height="1" fill="#ffd23f"/>
<rect x="5" y="5" width="1" height="1" fill="#ff6a1a"/>
<rect x="6" y="5" width="8" height="1" fill="#5a382e"/>
<rect x="14" y="5" width="1" height="1" fill="#4a2c24"/>
<rect x="15" y="5" width="1" height="1" fill="#5a382e"/>
<rect x="0" y="6" width="16" height="1" fill="#5a382e"/>
<rect x="0" y="7" width="2" height="1" fill="#4a2c24"/>
<rect x="2" y="7" width="9" height="1" fill="#5a382e"/>
<rect x="11" y="7" width="2" height="1" fill="#4a2c24"/>
<rect x="13" y="7" width="2" height="1" fill="#5a382e"/>
<rect x="15" y="7" width="1" height="1" fill="#4a2c24"/>
<rect x="0" y="8" width="9" height="1" fill="#5a382e"/>
<rect x="9" y="8" width="1" height="1" fill="#4a2c24"/>
<rect x="10" y="8" width="3" height="1" fill="#5a382e"/>
<rect x="13" y="8" width="1" height="1" fill="#4a2c24"/>
<rect x="14" y="8" width="2" height="1" fill="#5a382e"/>
<rect x="0" y="9" width="2" height="1" fill="#5a382e"/>
<rect x="2" y="9" width="1" height="1" fill="#4a2c24"/>
<rect x="3" y="9" width="2" height="1" fill="#5a382e"/>
<rect x="5" y="9" width="1" height="1" fill="#4a2c24"/>
<rect x="6" y="9" width="4" height="1" fill="#5a382e"/>
<rect x="10" y="9" width="1" height="1" fill="#ff6a1a"/>
<rect x="11" y="9" width="5" height="1" fill="#5a382e"/>
<rect x="0" y="10" width="10" height="1" fill="#5a382e"/>
<rect x="10" y="10" width="1" height="1" fill="#4a2c24"/>
<rect x="11" y="10" width="2" height="1" fill="#ff6a1a"/>
<rect x="13" y="10" width="1" height="1" fill="#4a2c24"/>
<rect x="14" y="10" width="2" height="1" fill="#5a382e"/>
<rect x="0" y="11" width="8" height="1" fill="#5a382e"/>
<rect x="8" y="11" width="2" height="1" fill="#4a2c24"/>
<rect x="10" y="11" width="1" height="1" fill="#5a382e"/>
<rect x="11" y="11" width="1" height="1" fill="#ffd23f"/>
<rect x="12" y="11" width="1" height="1" fill="#ff6a1a"/>
<rect x="13" y="11" width="3" height="1" fill="#5a382e"/>
<rect x="0" y="12" width="1" height="1" fill="#5a382e"/>
<rect x="1" y="12" width="1" height="1" fill="#4a2c24"/>
<rect x="2" y="12" width="14" height="1" fill="#5a382e"/>
<rect x="0" y="13" width="1" height="1" fill="#5a382e"/>
<rect x="1" y="13" width="1" height="1" fill="#4a2c24"/>
<rect x="2" y="13" width="2" height="1" fill="#5a382e"/>
<rect x="4" y="13" width="1" height="1" fill="#4a2c24"/>
<rect x="5" y="13" width="2" height="1" fill="#5a382e"/>
<rect x="7" y="13" width="1" height="1" fill="#ff6a1a"/>
<rect x="8" y="13" width="5" height="1" fill="#5a382e"/>
<rect x="13" y="13" width="2" height="1" fill="#4a2c24"/>
<rect x="15" y="13" width="1" height="1" fill="#5a382e"/>
<rect x="0" y="14" width="6" height="1" fill="#5a382e"/>
<rect x="6" y="14" width="1" height="1" fill="#4a2c24"/>
<rect x="7" y="14" width="1" height="1" fill="#5a382e"/>
<rect x="8" y="14" width="1" height="1" fill="#ff6a1a"/>
<rect x="9" y="14" width="1" height="1" fill="#4a2c24"/>
<rect x="10" y="14" width="6" height="1" fill="#5a382e"/>
<rect x="0" y="15" width="1" height="1" fill="#4a2c24"/>
<rect x="1" y="15" width="1" height="1" fill="#5a382e"/>
<rect x="2" y="15" width="1" height="1" fill="#4a2c24"/>
<rect x="3" y="15" width="11" height="1" fill="#5a382e"/>
<rect x="14" y="15" width="2" height="1" fill="#4a2c24"/>
</svg>
